<svg width="768" height="182" viewBox="0 0 768 182" fill="none" xmlns="http://www.w3.org/2000/svg">
<path d="M254.75 150V116.484H268.578C274.641 116.484 277.672 119.164 277.672 124.523C277.672 129.164 274.383 132.453 267.805 134.391L279.125 150H275.75L264.617 134.461V132.797C271.492 131.781 274.93 129.086 274.93 124.711C274.93 120.68 272.68 118.664 268.18 118.664H257.211V150H254.75ZM293.633 125.391C300.367 125.391 303.734 129.117 303.734 136.57C303.734 137.102 303.719 137.656 303.688 138.234H285.008C285.008 144.672 288.414 147.891 295.227 147.891C298.023 147.891 300.508 147.5 302.68 146.719V148.828C300.508 149.609 298.023 150 295.227 150C286.773 150 282.547 145.805 282.547 137.414C282.547 129.398 286.242 125.391 293.633 125.391ZM285.008 136.031H301.367C301.273 130.312 298.695 127.453 293.633 127.453C288.164 127.453 285.289 130.312 285.008 136.031ZM327.922 128.156C325.656 127.781 323.43 127.594 321.242 127.594C314.602 127.594 311.281 130.898 311.281 137.508C311.281 144.273 314.383 147.656 320.586 147.656C322.836 147.656 325.281 147.234 327.922 146.391V128.156ZM330.383 150C330.383 155.938 326.766 158.906 319.531 158.906C316.5 158.906 313.812 158.516 311.469 157.734V155.625C313.859 156.406 316.562 156.797 319.578 156.797C325.141 156.797 327.922 154.531 327.922 150V148.828C325.141 149.609 322.688 150 320.562 150C312.781 150 308.891 145.852 308.891 137.555C308.891 129.445 313.07 125.391 321.43 125.391C324.602 125.391 327.586 125.727 330.383 126.398V150ZM341.07 116.484V119.297H338.141V116.484H341.07ZM340.836 125.391V150H338.375V125.391H340.836ZM348.359 148.828V146.484C351.094 147.422 353.781 147.891 356.422 147.891C361.594 147.891 364.18 146.25 364.18 142.969C364.18 140.312 362.266 138.984 358.438 138.984H355.297C350.141 138.984 347.562 136.797 347.562 132.422C347.562 127.734 350.977 125.391 357.805 125.391C360.43 125.391 363.109 125.781 365.844 126.562V128.906C363.109 127.969 360.43 127.5 357.805 127.5C352.617 127.5 350.023 129.141 350.023 132.422C350.023 135.234 351.781 136.641 355.297 136.641H358.438C363.906 136.641 366.641 138.75 366.641 142.969C366.641 147.656 363.234 150 356.422 150C353.781 150 351.094 149.609 348.359 148.828ZM372.875 121.406H374.609L375.055 125.391H382.438V127.5H375.266V143.039C375.266 146.273 376.453 147.891 378.828 147.891H382.438V150H378.875C374.875 150 372.875 147.789 372.875 143.367V121.406ZM397.602 125.391C404.336 125.391 407.703 129.117 407.703 136.57C407.703 137.102 407.688 137.656 407.656 138.234H388.977C388.977 144.672 392.383 147.891 399.195 147.891C401.992 147.891 404.477 147.5 406.648 146.719V148.828C404.477 149.609 401.992 150 399.195 150C390.742 150 386.516 145.805 386.516 137.414C386.516 129.398 390.211 125.391 397.602 125.391ZM388.977 136.031H405.336C405.242 130.312 402.664 127.453 397.602 127.453C392.133 127.453 389.258 130.312 388.977 136.031ZM414.031 150V125.391H415.789L416.094 129.469C418.562 126.75 421.312 125.391 424.344 125.391V127.359C421.406 127.359 418.789 128.789 416.492 131.648V150H414.031ZM439.25 143.039C439.25 138.148 442.5 135.703 449 135.703C451.297 135.703 453.75 135.859 456.359 136.172V133.148C456.359 129.383 453.992 127.5 449.258 127.5C446.727 127.5 444.133 127.891 441.477 128.672V126.562C444.133 125.781 446.727 125.391 449.258 125.391C455.633 125.391 458.82 127.938 458.82 133.031V150H457.32L456.758 147.562C453.68 149.188 450.695 150 447.805 150C442.102 150 439.25 147.68 439.25 143.039ZM449 137.812C444.141 137.812 441.711 139.531 441.711 142.969C441.711 146.25 443.742 147.891 447.805 147.891C450.805 147.891 453.656 147.094 456.359 145.5V138.281C453.75 137.969 451.297 137.812 449 137.812ZM465.875 148.828V146.484C468.609 147.422 471.297 147.891 473.938 147.891C479.109 147.891 481.695 146.25 481.695 142.969C481.695 140.312 479.781 138.984 475.953 138.984H472.812C467.656 138.984 465.078 136.797 465.078 132.422C465.078 127.734 468.492 125.391 475.32 125.391C477.945 125.391 480.625 125.781 483.359 126.562V128.906C480.625 127.969 477.945 127.5 475.32 127.5C470.133 127.5 467.539 129.141 467.539 132.422C467.539 135.234 469.297 136.641 472.812 136.641H475.953C481.422 136.641 484.156 138.75 484.156 142.969C484.156 147.656 480.75 150 473.938 150C471.297 150 468.609 149.609 465.875 148.828ZM500.797 143.039C500.797 138.148 504.047 135.703 510.547 135.703C512.844 135.703 515.297 135.859 517.906 136.172V133.148C517.906 129.383 515.539 127.5 510.805 127.5C508.273 127.5 505.68 127.891 503.023 128.672V126.562C505.68 125.781 508.273 125.391 510.805 125.391C517.18 125.391 520.367 127.938 520.367 133.031V150H518.867L518.305 147.562C515.227 149.188 512.242 150 509.352 150C503.648 150 500.797 147.68 500.797 143.039ZM510.547 137.812C505.688 137.812 503.258 139.531 503.258 142.969C503.258 146.25 505.289 147.891 509.352 147.891C512.352 147.891 515.203 147.094 517.906 145.5V138.281C515.297 137.969 512.844 137.812 510.547 137.812ZM536.094 125.391H538.906L547.906 147.867L556.953 125.391H559.766L549.289 150H546.43L536.094 125.391ZM565.039 137.602C565.039 144.617 568.047 148.125 574.062 148.125C580.078 148.125 583.086 144.617 583.086 137.602C583.086 130.711 580.078 127.266 574.062 127.266C568.047 127.266 565.039 130.711 565.039 137.602ZM562.578 137.695C562.578 129.336 566.406 125.156 574.062 125.156C581.719 125.156 585.547 129.336 585.547 137.695C585.547 146.039 581.719 150.211 574.062 150.211C566.438 150.211 562.609 146.039 562.578 137.695ZM594.805 116.484V150H592.344V116.484H594.805ZM623.07 125.391V150H621.266L620.984 146.859C618.156 148.953 615 150 611.516 150C605.703 150 602.797 146.945 602.797 140.836V125.391H605.258V140.906C605.258 145.5 607.383 147.797 611.633 147.797C614.742 147.797 617.734 146.758 620.609 144.68V125.391H623.07ZM630.594 150V125.391H632.352L632.656 128.531C635.797 126.438 638.875 125.391 641.891 125.391C647.875 125.391 650.867 127.977 650.867 133.148V150H648.406V133.078C648.406 129.422 646.195 127.594 641.773 127.594C638.82 127.594 635.914 128.633 633.055 130.711V150H630.594ZM658.297 121.406H660.031L660.477 125.391H667.859V127.5H660.688V143.039C660.688 146.273 661.875 147.891 664.25 147.891H667.859V150H664.297C660.297 150 658.297 147.789 658.297 143.367V121.406ZM683.023 125.391C689.758 125.391 693.125 129.117 693.125 136.57C693.125 137.102 693.109 137.656 693.078 138.234H674.398C674.398 144.672 677.805 147.891 684.617 147.891C687.414 147.891 689.898 147.5 692.07 146.719V148.828C689.898 149.609 687.414 150 684.617 150C676.164 150 671.938 145.805 671.938 137.414C671.938 129.398 675.633 125.391 683.023 125.391ZM674.398 136.031H690.758C690.664 130.312 688.086 127.453 683.023 127.453C677.555 127.453 674.68 130.312 674.398 136.031ZM709.367 125.391C716.102 125.391 719.469 129.117 719.469 136.57C719.469 137.102 719.453 137.656 719.422 138.234H700.742C700.742 144.672 704.148 147.891 710.961 147.891C713.758 147.891 716.242 147.5 718.414 146.719V148.828C716.242 149.609 713.758 150 710.961 150C702.508 150 698.281 145.805 698.281 137.414C698.281 129.398 701.977 125.391 709.367 125.391ZM700.742 136.031H717.102C717.008 130.312 714.43 127.453 709.367 127.453C703.898 127.453 701.023 130.312 700.742 136.031ZM725.797 150V125.391H727.555L727.859 129.469C730.328 126.75 733.078 125.391 736.109 125.391V127.359C733.172 127.359 730.555 128.789 728.258 131.648V150H725.797Z" fill="#F2F2F2"/>
<path d="M254.75 150H253.75V151H254.75V150ZM254.75 116.484V115.484H253.75V116.484H254.75ZM267.805 134.391L267.522 133.431L266.164 133.831L266.995 134.978L267.805 134.391ZM279.125 150V151H281.086L279.935 149.413L279.125 150ZM275.75 150L274.937 150.582L275.236 151H275.75V150ZM264.617 134.461H263.617V134.782L263.804 135.043L264.617 134.461ZM264.617 132.797L264.471 131.808L263.617 131.934V132.797H264.617ZM257.211 118.664V117.664H256.211V118.664H257.211ZM257.211 150V151H258.211V150H257.211ZM255.75 150V116.484H253.75V150H255.75ZM254.75 117.484H268.578V115.484H254.75V117.484ZM268.578 117.484C271.483 117.484 273.476 118.129 274.736 119.243C275.973 120.337 276.672 122.032 276.672 124.523H278.672C278.672 121.655 277.855 119.331 276.061 117.745C274.29 116.179 271.735 115.484 268.578 115.484V117.484ZM276.672 124.523C276.672 126.578 275.955 128.306 274.498 129.764C273.015 131.247 270.721 132.489 267.522 133.431L268.087 135.35C271.466 134.355 274.107 132.983 275.912 131.178C277.744 129.346 278.672 127.11 278.672 124.523H276.672ZM266.995 134.978L278.315 150.587L279.935 149.413L268.614 133.804L266.995 134.978ZM279.125 149H275.75V151H279.125V149ZM276.563 149.418L265.43 133.879L263.804 135.043L274.937 150.582L276.563 149.418ZM265.617 134.461V132.797H263.617V134.461H265.617ZM264.763 133.786C268.281 133.266 271.055 132.301 272.969 130.801C274.93 129.263 275.93 127.205 275.93 124.711H273.93C273.93 126.592 273.211 128.069 271.735 129.227C270.211 130.422 267.828 131.312 264.471 131.808L264.763 133.786ZM275.93 124.711C275.93 122.511 275.311 120.686 273.909 119.431C272.529 118.194 270.558 117.664 268.18 117.664V119.664C270.301 119.664 271.705 120.142 272.575 120.921C273.424 121.681 273.93 122.88 273.93 124.711H275.93ZM268.18 117.664H257.211V119.664H268.18V117.664ZM256.211 118.664V150H258.211V118.664H256.211ZM257.211 149H254.75V151H257.211V149ZM303.688 138.234V139.234H304.635L304.686 138.288L303.688 138.234ZM285.008 138.234V137.234H284.008V138.234H285.008ZM302.68 146.719H303.68V145.296L302.341 145.778L302.68 146.719ZM302.68 148.828L303.018 149.769L303.68 149.531V148.828H302.68ZM285.008 136.031L284.009 135.982L283.957 137.031H285.008V136.031ZM301.367 136.031V137.031H302.384L302.367 136.015L301.367 136.031ZM293.633 126.391C296.818 126.391 299.032 127.267 300.467 128.856C301.92 130.464 302.734 132.974 302.734 136.57H304.734C304.734 132.713 303.865 129.634 301.951 127.515C300.019 125.377 297.182 124.391 293.633 124.391V126.391ZM302.734 136.57C302.734 137.082 302.719 137.619 302.689 138.18L304.686 138.288C304.718 137.694 304.734 137.121 304.734 136.57H302.734ZM303.688 137.234H285.008V139.234H303.688V137.234ZM284.008 138.234C284.008 141.622 284.907 144.343 286.876 146.203C288.834 148.054 291.68 148.891 295.227 148.891V146.891C291.961 146.891 289.697 146.118 288.249 144.75C286.812 143.391 286.008 141.284 286.008 138.234H284.008ZM295.227 148.891C298.115 148.891 300.717 148.487 303.018 147.66L302.341 145.778C300.298 146.513 297.932 146.891 295.227 146.891V148.891ZM301.68 146.719V148.828H303.68V146.719H301.68ZM302.341 147.887C300.298 148.622 297.932 149 295.227 149V151C298.115 151 300.717 150.597 303.018 149.769L302.341 147.887ZM295.227 149C291.152 149 288.281 147.989 286.421 146.144C284.563 144.3 283.547 141.453 283.547 137.414H281.547C281.547 141.765 282.644 145.212 285.012 147.563C287.38 149.913 290.848 151 295.227 151V149ZM283.547 137.414C283.547 133.541 284.441 130.823 286.054 129.074C287.652 127.341 290.113 126.391 293.633 126.391V124.391C289.762 124.391 286.68 125.444 284.583 127.719C282.5 129.978 281.547 133.271 281.547 137.414H283.547ZM285.008 137.031H301.367V135.031H285.008V137.031ZM302.367 136.015C302.318 133.028 301.62 130.607 300.106 128.928C298.572 127.227 296.353 126.453 293.633 126.453V128.453C295.975 128.453 297.576 129.109 298.621 130.267C299.685 131.448 300.323 133.316 300.367 136.048L302.367 136.015ZM293.633 126.453C290.729 126.453 288.353 127.215 286.67 128.889C284.994 130.555 284.157 132.976 284.009 135.982L286.007 136.08C286.14 133.368 286.881 131.5 288.08 130.307C289.272 129.121 291.068 128.453 293.633 128.453V126.453ZM327.922 128.156H328.922V127.308L328.085 127.17L327.922 128.156ZM327.922 146.391L328.226 147.343L328.922 147.121V146.391H327.922ZM311.469 157.734H310.469V158.455L311.153 158.683L311.469 157.734ZM311.469 155.625L311.779 154.674L310.469 154.246V155.625H311.469ZM327.922 148.828H328.922V147.509L327.651 147.865L327.922 148.828ZM330.383 126.398H331.383V125.61L330.616 125.426L330.383 126.398ZM328.085 127.17C325.768 126.786 323.487 126.594 321.242 126.594V128.594C323.372 128.594 325.544 128.776 327.759 129.143L328.085 127.17ZM321.242 126.594C317.769 126.594 314.98 127.459 313.066 129.363C311.151 131.269 310.281 134.048 310.281 137.508H312.281C312.281 134.358 313.071 132.18 314.477 130.781C315.883 129.381 318.075 128.594 321.242 128.594V126.594ZM310.281 137.508C310.281 141.024 311.085 143.848 312.87 145.795C314.67 147.758 317.307 148.656 320.586 148.656V146.656C317.662 146.656 315.646 145.863 314.345 144.443C313.028 143.007 312.281 140.757 312.281 137.508H310.281ZM320.586 148.656C322.96 148.656 325.509 148.211 328.226 147.343L327.618 145.438C325.053 146.257 322.712 146.656 320.586 146.656V148.656ZM328.922 146.391V128.156H326.922V146.391H328.922ZM329.383 150C329.383 152.757 328.553 154.662 327.036 155.907C325.481 157.183 323.037 157.906 319.531 157.906V159.906C323.26 159.906 326.242 159.145 328.304 157.453C330.404 155.729 331.383 153.181 331.383 150H329.383ZM319.531 157.906C316.584 157.906 314.007 157.526 311.785 156.786L311.153 158.683C313.618 159.505 316.416 159.906 319.531 159.906V157.906ZM312.469 157.734V155.625H310.469V157.734H312.469ZM311.158 156.576C313.667 157.395 316.477 157.797 319.578 157.797V155.797C316.648 155.797 314.052 155.417 311.779 154.674L311.158 156.576ZM319.578 157.797C322.469 157.797 324.824 157.212 326.468 155.873C328.151 154.502 328.922 152.48 328.922 150H326.922C326.922 152.051 326.302 153.428 325.204 154.322C324.067 155.249 322.249 155.797 319.578 155.797V157.797ZM328.922 150V148.828H326.922V150H328.922ZM327.651 147.865C324.929 148.63 322.57 149 320.562 149V151C322.805 151 325.352 150.589 328.192 149.791L327.651 147.865ZM320.562 149C316.843 149 314.233 148.012 312.538 146.205C310.832 144.386 309.891 141.564 309.891 137.555H307.891C307.891 141.842 308.895 145.243 311.079 147.573C313.275 149.914 316.501 151 320.562 151V149ZM309.891 137.555C309.891 133.662 310.892 130.924 312.722 129.149C314.557 127.369 317.397 126.391 321.43 126.391V124.391C317.103 124.391 313.674 125.44 311.329 127.714C308.979 129.994 307.891 133.338 307.891 137.555H309.891ZM321.43 126.391C324.531 126.391 327.436 126.719 330.149 127.371L330.616 125.426C327.736 124.734 324.672 124.391 321.43 124.391V126.391ZM329.383 126.398V150H331.383V126.398H329.383ZM341.07 116.484H342.07V115.484H341.07V116.484ZM341.07 119.297V120.297H342.07V119.297H341.07ZM338.141 119.297H337.141V120.297H338.141V119.297ZM338.141 116.484V115.484H337.141V116.484H338.141ZM340.836 125.391H341.836V124.391H340.836V125.391ZM340.836 150V151H341.836V150H340.836ZM338.375 150H337.375V151H338.375V150ZM338.375 125.391V124.391H337.375V125.391H338.375ZM340.07 116.484V119.297H342.07V116.484H340.07ZM341.07 118.297H338.141V120.297H341.07V118.297ZM339.141 119.297V116.484H337.141V119.297H339.141ZM338.141 117.484H341.07V115.484H338.141V117.484ZM339.836 125.391V150H341.836V125.391H339.836ZM340.836 149H338.375V151H340.836V149ZM339.375 150V125.391H337.375V150H339.375ZM338.375 126.391H340.836V124.391H338.375V126.391ZM348.359 148.828H347.359V149.582L348.085 149.79L348.359 148.828ZM348.359 146.484L348.684 145.538L347.359 145.084V146.484H348.359ZM365.844 126.562H366.844V125.808L366.118 125.601L365.844 126.562ZM365.844 128.906L365.519 129.852L366.844 130.306V128.906H365.844ZM349.359 148.828V146.484H347.359V148.828H349.359ZM348.035 147.43C350.864 148.4 353.661 148.891 356.422 148.891V146.891C353.902 146.891 351.324 146.444 348.684 145.538L348.035 147.43ZM356.422 148.891C359.081 148.891 361.247 148.475 362.776 147.505C364.382 146.486 365.18 144.922 365.18 142.969H363.18C363.18 144.296 362.684 145.194 361.705 145.816C360.648 146.486 358.934 146.891 356.422 146.891V148.891ZM365.18 142.969C365.18 141.366 364.582 140.038 363.314 139.159C362.113 138.326 360.436 137.984 358.438 137.984V139.984C360.267 139.984 361.461 140.307 362.174 140.802C362.821 141.251 363.18 141.915 363.18 142.969H365.18ZM358.438 137.984H355.297V139.984H358.438V137.984ZM355.297 137.984C352.836 137.984 351.178 137.459 350.143 136.581C349.14 135.73 348.562 134.408 348.562 132.422H346.562C346.562 134.81 347.274 136.77 348.849 138.106C350.393 139.416 352.601 139.984 355.297 139.984V137.984ZM348.562 132.422C348.562 130.357 349.293 128.931 350.689 127.973C352.153 126.968 354.474 126.391 357.805 126.391V124.391C354.307 124.391 351.507 124.985 349.557 126.324C347.539 127.709 346.562 129.799 346.562 132.422H348.562ZM357.805 126.391C360.329 126.391 362.917 126.766 365.569 127.524L366.118 125.601C363.302 124.796 360.53 124.391 357.805 124.391V126.391ZM364.844 126.562V128.906H366.844V126.562H364.844ZM366.168 127.96C363.34 126.991 360.551 126.5 357.805 126.5V128.5C360.309 128.5 362.879 128.947 365.519 129.852L366.168 127.96ZM357.805 126.5C355.138 126.5 352.967 126.916 351.434 127.885C349.824 128.904 349.023 130.467 349.023 132.422H351.023C351.023 131.096 351.519 130.198 352.503 129.576C353.564 128.904 355.284 128.5 357.805 128.5V126.5ZM349.023 132.422C349.023 134.049 349.543 135.427 350.717 136.367C351.849 137.272 353.432 137.641 355.297 137.641V135.641C353.646 135.641 352.593 135.306 351.966 134.805C351.383 134.338 351.023 133.607 351.023 132.422H349.023ZM355.297 137.641H358.438V135.641H355.297V137.641ZM358.438 137.641C361.071 137.641 362.863 138.153 363.979 139.014C365.046 139.838 365.641 141.093 365.641 142.969H367.641C367.641 140.626 366.868 138.717 365.201 137.431C363.582 136.183 361.273 135.641 358.438 135.641V137.641ZM365.641 142.969C365.641 145.034 364.911 146.46 363.519 147.418C362.059 148.423 359.744 149 356.422 149V151C359.912 151 362.706 150.405 364.653 149.066C366.667 147.68 367.641 145.591 367.641 142.969H365.641ZM356.422 149C353.881 149 351.286 148.624 348.634 147.867L348.085 149.79C350.902 150.594 353.681 151 356.422 151V149ZM372.875 121.406V120.406H371.875V121.406H372.875ZM374.609 121.406L375.603 121.295L375.504 120.406H374.609V121.406ZM375.055 125.391L374.061 125.502L374.16 126.391H375.055V125.391ZM382.438 125.391H383.438V124.391H382.438V125.391ZM382.438 127.5V128.5H383.438V127.5H382.438ZM375.266 127.5V126.5H374.266V127.5H375.266ZM382.438 147.891H383.438V146.891H382.438V147.891ZM382.438 150V151H383.438V150H382.438ZM372.875 122.406H374.609V120.406H372.875V122.406ZM373.616 121.517L374.061 125.502L376.048 125.28L375.603 121.295L373.616 121.517ZM375.055 126.391H382.438V124.391H375.055V126.391ZM381.438 125.391V127.5H383.438V125.391H381.438ZM382.438 126.5H375.266V128.5H382.438V126.5ZM374.266 127.5V143.039H376.266V127.5H374.266ZM374.266 143.039C374.266 144.749 374.574 146.213 375.35 147.27C376.168 148.384 377.389 148.891 378.828 148.891V146.891C377.893 146.891 377.332 146.589 376.962 146.086C376.551 145.525 376.266 144.563 376.266 143.039H374.266ZM378.828 148.891H382.438V146.891H378.828V148.891ZM381.438 147.891V150H383.438V147.891H381.438ZM382.438 149H378.875V151H382.438V149ZM378.875 149C377.056 149 375.868 148.502 375.117 147.671C374.348 146.821 373.875 145.447 373.875 143.367H371.875C371.875 145.709 372.402 147.652 373.633 149.013C374.882 150.393 376.694 151 378.875 151V149ZM373.875 143.367V121.406H371.875V143.367H373.875ZM407.656 138.234V139.234H408.604L408.655 138.288L407.656 138.234ZM388.977 138.234V137.234H387.977V138.234H388.977ZM406.648 146.719H407.648V145.296L406.31 145.778L406.648 146.719ZM406.648 148.828L406.987 149.769L407.648 149.531V148.828H406.648ZM388.977 136.031L387.978 135.982L387.926 137.031H388.977V136.031ZM405.336 136.031V137.031H406.352L406.336 136.015L405.336 136.031ZM397.602 126.391C400.787 126.391 403 127.267 404.436 128.856C405.889 130.464 406.703 132.974 406.703 136.57H408.703C408.703 132.713 407.834 129.634 405.92 127.515C403.988 125.377 401.151 124.391 397.602 124.391V126.391ZM406.703 136.57C406.703 137.082 406.688 137.619 406.658 138.18L408.655 138.288C408.687 137.694 408.703 137.121 408.703 136.57H406.703ZM407.656 137.234H388.977V139.234H407.656V137.234ZM387.977 138.234C387.977 141.622 388.876 144.343 390.844 146.203C392.803 148.054 395.649 148.891 399.195 148.891V146.891C395.93 146.891 393.666 146.118 392.218 144.75C390.781 143.391 389.977 141.284 389.977 138.234H387.977ZM399.195 148.891C402.084 148.891 404.686 148.487 406.987 147.66L406.31 145.778C404.267 146.513 401.9 146.891 399.195 146.891V148.891ZM405.648 146.719V148.828H407.648V146.719H405.648ZM406.31 147.887C404.267 148.622 401.9 149 399.195 149V151C402.084 151 404.686 150.597 406.987 149.769L406.31 147.887ZM399.195 149C395.121 149 392.249 147.989 390.39 146.144C388.532 144.3 387.516 141.453 387.516 137.414H385.516C385.516 141.765 386.612 145.212 388.981 147.563C391.348 149.913 394.816 151 399.195 151V149ZM387.516 137.414C387.516 133.541 388.41 130.823 390.022 129.074C391.62 127.341 394.082 126.391 397.602 126.391V124.391C393.73 124.391 390.649 125.444 388.552 127.719C386.469 129.978 385.516 133.271 385.516 137.414H387.516ZM388.977 137.031H405.336V135.031H388.977V137.031ZM406.336 136.015C406.287 133.028 405.588 130.607 404.075 128.928C402.541 127.227 400.322 126.453 397.602 126.453V128.453C399.944 128.453 401.545 129.109 402.589 130.267C403.654 131.448 404.291 133.316 404.336 136.048L406.336 136.015ZM397.602 126.453C394.698 126.453 392.321 127.215 390.639 128.889C388.963 130.555 388.126 132.976 387.978 135.982L389.975 136.08C390.109 133.368 390.849 131.5 392.049 130.307C393.241 129.121 395.037 128.453 397.602 128.453V126.453ZM414.031 150H413.031V151H414.031V150ZM414.031 125.391V124.391H413.031V125.391H414.031ZM415.789 125.391L416.786 125.316L416.717 124.391H415.789V125.391ZM416.094 129.469L415.097 129.543L415.27 131.864L416.834 130.141L416.094 129.469ZM424.344 125.391H425.344V124.391H424.344V125.391ZM424.344 127.359V128.359H425.344V127.359H424.344ZM416.492 131.648L415.713 131.022L415.492 131.297V131.648H416.492ZM416.492 150V151H417.492V150H416.492ZM415.031 150V125.391H413.031V150H415.031ZM414.031 126.391H415.789V124.391H414.031V126.391ZM414.792 125.465L415.097 129.543L417.091 129.394L416.786 125.316L414.792 125.465ZM416.834 130.141C419.157 127.583 421.653 126.391 424.344 126.391V124.391C420.972 124.391 417.968 125.917 415.353 128.797L416.834 130.141ZM423.344 125.391V127.359H425.344V125.391H423.344ZM424.344 126.359C421.029 126.359 418.148 127.991 415.713 131.022L417.272 132.275C419.431 129.587 421.783 128.359 424.344 128.359V126.359ZM415.492 131.648V150H417.492V131.648H415.492ZM416.492 149H414.031V151H416.492V149ZM456.359 136.172L456.24 137.165L457.359 137.299V136.172H456.359ZM441.477 128.672H440.477V130.008L441.759 129.631L441.477 128.672ZM441.477 126.562L441.194 125.603L440.477 125.814V126.562H441.477ZM458.82 150V151H459.82V150H458.82ZM457.32 150L456.346 150.225L456.525 151H457.32V150ZM456.758 147.562L457.732 147.338L457.44 146.072L456.291 146.678L456.758 147.562ZM456.359 145.5L456.867 146.361L457.359 146.071V145.5H456.359ZM456.359 138.281H457.359V137.394L456.478 137.288L456.359 138.281ZM440.25 143.039C440.25 140.837 440.967 139.331 442.289 138.336C443.664 137.301 445.847 136.703 449 136.703V134.703C445.653 134.703 442.961 135.328 441.086 136.738C439.158 138.189 438.25 140.351 438.25 143.039H440.25ZM449 136.703C451.252 136.703 453.665 136.856 456.24 137.165L456.478 135.179C453.835 134.862 451.342 134.703 449 134.703V136.703ZM457.359 136.172V133.148H455.359V136.172H457.359ZM457.359 133.148C457.359 131.043 456.686 129.306 455.206 128.129C453.77 126.987 451.731 126.5 449.258 126.5V128.5C451.519 128.5 453.03 128.954 453.961 129.695C454.849 130.401 455.359 131.488 455.359 133.148H457.359ZM449.258 126.5C446.623 126.5 443.934 126.907 441.194 127.713L441.759 129.631C444.332 128.874 446.831 128.5 449.258 128.5V126.5ZM442.477 128.672V126.562H440.477V128.672H442.477ZM441.759 127.522C444.332 126.765 446.831 126.391 449.258 126.391V124.391C446.623 124.391 443.934 124.797 441.194 125.603L441.759 127.522ZM449.258 126.391C452.339 126.391 454.464 127.01 455.805 128.082C457.104 129.119 457.82 130.706 457.82 133.031H459.82C459.82 130.263 458.943 128.029 457.054 126.52C455.208 125.044 452.552 124.391 449.258 124.391V126.391ZM457.82 133.031V150H459.82V133.031H457.82ZM458.82 149H457.32V151H458.82V149ZM458.295 149.775L457.732 147.338L455.783 147.787L456.346 150.225L458.295 149.775ZM456.291 146.678C453.328 148.243 450.503 149 447.805 149V151C450.888 151 454.032 150.132 457.225 148.447L456.291 146.678ZM447.805 149C445.063 149 443.192 148.438 442.02 147.484C440.887 146.562 440.25 145.144 440.25 143.039H438.25C438.25 145.574 439.039 147.637 440.758 149.035C442.437 150.402 444.843 151 447.805 151V149ZM449 136.812C446.483 136.812 444.416 137.252 442.956 138.285C441.432 139.363 440.711 140.983 440.711 142.969H442.711C442.711 141.517 443.205 140.559 444.111 139.918C445.08 139.232 446.658 138.812 449 138.812V136.812ZM440.711 142.969C440.711 144.827 441.297 146.38 442.606 147.438C443.875 148.463 445.665 148.891 447.805 148.891V146.891C445.882 146.891 444.625 146.498 443.863 145.882C443.141 145.299 442.711 144.392 442.711 142.969H440.711ZM447.805 148.891C450.992 148.891 454.018 148.042 456.867 146.361L455.851 144.639C453.295 146.146 450.618 146.891 447.805 146.891V148.891ZM457.359 145.5V138.281H455.359V145.5H457.359ZM456.478 137.288C453.835 136.972 451.342 136.812 449 136.812V138.812C451.252 138.812 453.665 138.966 456.24 139.274L456.478 137.288ZM465.875 148.828H464.875V149.582L465.6 149.79L465.875 148.828ZM465.875 146.484L466.199 145.538L464.875 145.084V146.484H465.875ZM483.359 126.562H484.359V125.808L483.634 125.601L483.359 126.562ZM483.359 128.906L483.035 129.852L484.359 130.306V128.906H483.359ZM466.875 148.828V146.484H464.875V148.828H466.875ZM465.551 147.43C468.38 148.4 471.177 148.891 473.938 148.891V146.891C471.417 146.891 468.839 146.444 466.199 145.538L465.551 147.43ZM473.938 148.891C476.597 148.891 478.763 148.475 480.292 147.505C481.898 146.486 482.695 144.922 482.695 142.969H480.695C480.695 144.296 480.2 145.194 479.22 145.816C478.163 146.486 476.45 146.891 473.938 146.891V148.891ZM482.695 142.969C482.695 141.366 482.097 140.038 480.83 139.159C479.629 138.326 477.952 137.984 475.953 137.984V139.984C477.782 139.984 478.977 140.307 479.69 140.802C480.336 141.251 480.695 141.915 480.695 142.969H482.695ZM475.953 137.984H472.812V139.984H475.953V137.984ZM472.812 137.984C470.352 137.984 468.693 137.459 467.659 136.581C466.656 135.73 466.078 134.408 466.078 132.422H464.078C464.078 134.81 464.79 136.77 466.365 138.106C467.908 139.416 470.117 139.984 472.812 139.984V137.984ZM466.078 132.422C466.078 130.357 466.808 128.931 468.205 127.973C469.669 126.968 471.99 126.391 475.32 126.391V124.391C471.823 124.391 469.023 124.985 467.073 126.324C465.055 127.709 464.078 129.799 464.078 132.422H466.078ZM475.32 126.391C477.845 126.391 480.432 126.766 483.085 127.524L483.634 125.601C480.818 124.796 478.046 124.391 475.32 124.391V126.391ZM482.359 126.562V128.906H484.359V126.562H482.359ZM483.684 127.96C480.855 126.991 478.066 126.5 475.32 126.5V128.5C477.824 128.5 480.395 128.947 483.035 129.852L483.684 127.96ZM475.32 126.5C472.653 126.5 470.482 126.916 468.95 127.885C467.34 128.904 466.539 130.467 466.539 132.422H468.539C468.539 131.096 469.035 130.198 470.019 129.576C471.08 128.904 472.8 128.5 475.32 128.5V126.5ZM466.539 132.422C466.539 134.049 467.059 135.427 468.233 136.367C469.364 137.272 470.948 137.641 472.812 137.641V135.641C471.162 135.641 470.108 135.306 469.482 134.805C468.898 134.338 468.539 133.607 468.539 132.422H466.539ZM472.812 137.641H475.953V135.641H472.812V137.641ZM475.953 137.641C478.587 137.641 480.378 138.153 481.495 139.014C482.562 139.838 483.156 141.093 483.156 142.969H485.156C485.156 140.626 484.384 138.717 482.716 137.431C481.098 136.183 478.788 135.641 475.953 135.641V137.641ZM483.156 142.969C483.156 145.034 482.427 146.46 481.035 147.418C479.575 148.423 477.26 149 473.938 149V151C477.427 151 480.222 150.405 482.168 149.066C484.182 147.68 485.156 145.591 485.156 142.969H483.156ZM473.938 149C471.397 149 468.802 148.624 466.15 147.867L465.6 149.79C468.417 150.594 471.197 151 473.938 151V149ZM517.906 136.172L517.787 137.165L518.906 137.299V136.172H517.906ZM503.023 128.672H502.023V130.008L503.306 129.631L503.023 128.672ZM503.023 126.562L502.741 125.603L502.023 125.814V126.562H503.023ZM520.367 150V151H521.367V150H520.367ZM518.867 150L517.893 150.225L518.072 151H518.867V150ZM518.305 147.562L519.279 147.338L518.987 146.072L517.838 146.678L518.305 147.562ZM517.906 145.5L518.414 146.361L518.906 146.071V145.5H517.906ZM517.906 138.281H518.906V137.394L518.025 137.288L517.906 138.281ZM501.797 143.039C501.797 140.837 502.514 139.331 503.836 138.336C505.211 137.301 507.394 136.703 510.547 136.703V134.703C507.2 134.703 504.508 135.328 502.633 136.738C500.705 138.189 499.797 140.351 499.797 143.039H501.797ZM510.547 136.703C512.799 136.703 515.212 136.856 517.787 137.165L518.025 135.179C515.382 134.862 512.889 134.703 510.547 134.703V136.703ZM518.906 136.172V133.148H516.906V136.172H518.906ZM518.906 133.148C518.906 131.043 518.233 129.306 516.753 128.129C515.317 126.987 513.278 126.5 510.805 126.5V128.5C513.066 128.5 514.577 128.954 515.508 129.695C516.396 130.401 516.906 131.488 516.906 133.148H518.906ZM510.805 126.5C508.169 126.5 505.481 126.907 502.741 127.713L503.306 129.631C505.879 128.874 508.377 128.5 510.805 128.5V126.5ZM504.023 128.672V126.562H502.023V128.672H504.023ZM503.306 127.522C505.879 126.765 508.377 126.391 510.805 126.391V124.391C508.169 124.391 505.481 124.797 502.741 125.603L503.306 127.522ZM510.805 126.391C513.886 126.391 516.011 127.01 517.352 128.082C518.651 129.119 519.367 130.706 519.367 133.031H521.367C521.367 130.263 520.49 128.029 518.601 126.52C516.754 125.044 514.099 124.391 510.805 124.391V126.391ZM519.367 133.031V150H521.367V133.031H519.367ZM520.367 149H518.867V151H520.367V149ZM519.842 149.775L519.279 147.338L517.33 147.787L517.893 150.225L519.842 149.775ZM517.838 146.678C514.874 148.243 512.049 149 509.352 149V151C512.435 151 515.579 150.132 518.772 148.447L517.838 146.678ZM509.352 149C506.61 149 504.739 148.438 503.567 147.484C502.434 146.562 501.797 145.144 501.797 143.039H499.797C499.797 145.574 500.586 147.637 502.304 149.035C503.984 150.402 506.39 151 509.352 151V149ZM510.547 136.812C508.03 136.812 505.963 137.252 504.503 138.285C502.979 139.363 502.258 140.983 502.258 142.969H504.258C504.258 141.517 504.752 140.559 505.658 139.918C506.627 139.232 508.205 138.812 510.547 138.812V136.812ZM502.258 142.969C502.258 144.827 502.843 146.38 504.153 147.438C505.422 148.463 507.212 148.891 509.352 148.891V146.891C507.429 146.891 506.172 146.498 505.41 145.882C504.688 145.299 504.258 144.392 504.258 142.969H502.258ZM509.352 148.891C512.539 148.891 515.565 148.042 518.414 146.361L517.398 144.639C514.842 146.146 512.165 146.891 509.352 146.891V148.891ZM518.906 145.5V138.281H516.906V145.5H518.906ZM518.025 137.288C515.382 136.972 512.889 136.812 510.547 136.812V138.812C512.799 138.812 515.212 138.966 517.787 139.274L518.025 137.288ZM536.094 125.391V124.391H534.589L535.172 125.778L536.094 125.391ZM538.906 125.391L539.835 125.019L539.583 124.391H538.906V125.391ZM547.906 147.867L546.978 148.239L547.904 150.551L548.834 148.241L547.906 147.867ZM556.953 125.391V124.391H556.278L556.025 125.017L556.953 125.391ZM559.766 125.391L560.686 125.782L561.278 124.391H559.766V125.391ZM549.289 150V151H549.95L550.209 150.392L549.289 150ZM546.43 150L545.508 150.387L545.765 151H546.43V150ZM536.094 126.391H538.906V124.391H536.094V126.391ZM537.978 125.762L546.978 148.239L548.835 147.495L539.835 125.019L537.978 125.762ZM548.834 148.241L557.881 125.764L556.025 125.017L546.979 147.494L548.834 148.241ZM556.953 126.391H559.766V124.391H556.953V126.391ZM558.846 124.999L548.369 149.608L550.209 150.392L560.686 125.782L558.846 124.999ZM549.289 149H546.43V151H549.289V149ZM547.352 149.613L537.016 125.003L535.172 125.778L545.508 150.387L547.352 149.613ZM562.578 137.695H561.578L561.578 137.699L562.578 137.695ZM564.039 137.602C564.039 141.229 564.813 144.136 566.536 146.145C568.283 148.183 570.857 149.125 574.062 149.125V147.125C571.252 147.125 569.314 146.313 568.054 144.843C566.769 143.344 566.039 140.99 566.039 137.602H564.039ZM574.062 149.125C577.268 149.125 579.842 148.183 581.589 146.145C583.312 144.136 584.086 141.229 584.086 137.602H582.086C582.086 140.99 581.356 143.344 580.071 144.843C578.811 146.313 576.873 147.125 574.062 147.125V149.125ZM584.086 137.602C584.086 134.033 583.31 131.17 581.583 129.192C579.834 127.188 577.262 126.266 574.062 126.266V128.266C576.878 128.266 578.818 129.066 580.077 130.507C581.358 131.975 582.086 134.28 582.086 137.602H584.086ZM574.062 126.266C570.863 126.266 568.291 127.188 566.542 129.192C564.815 131.17 564.039 134.033 564.039 137.602H566.039C566.039 134.28 566.767 131.975 568.048 130.507C569.307 129.066 571.247 128.266 574.062 128.266V126.266ZM563.578 137.695C563.578 133.649 564.506 130.801 566.187 128.966C567.852 127.149 570.412 126.156 574.062 126.156V124.156C570.057 124.156 566.875 125.254 564.712 127.616C562.564 129.961 561.578 133.382 561.578 137.695H563.578ZM574.062 126.156C577.713 126.156 580.273 127.149 581.938 128.966C583.619 130.801 584.547 133.649 584.547 137.695H586.547C586.547 133.382 585.561 129.961 583.413 127.616C581.25 125.254 578.068 124.156 574.062 124.156V126.156ZM584.547 137.695C584.547 141.733 583.619 144.575 581.939 146.406C580.274 148.22 577.713 149.211 574.062 149.211V151.211C578.068 151.211 581.249 150.116 583.413 147.758C585.561 145.417 586.547 142.001 586.547 137.695H584.547ZM574.062 149.211C570.429 149.211 567.875 148.221 566.209 146.406C564.528 144.574 563.593 141.73 563.578 137.692L561.578 137.699C561.594 142.004 562.589 145.418 564.736 147.758C566.898 150.115 570.071 151.211 574.062 151.211V149.211ZM594.805 116.484H595.805V115.484H594.805V116.484ZM594.805 150V151H595.805V150H594.805ZM592.344 150H591.344V151H592.344V150ZM592.344 116.484V115.484H591.344V116.484H592.344ZM593.805 116.484V150H595.805V116.484H593.805ZM594.805 149H592.344V151H594.805V149ZM593.344 150V116.484H591.344V150H593.344ZM592.344 117.484H594.805V115.484H592.344V117.484ZM623.07 125.391H624.07V124.391H623.07V125.391ZM623.07 150V151H624.07V150H623.07ZM621.266 150L620.27 150.089L620.351 151H621.266V150ZM620.984 146.859L621.98 146.77L621.821 144.995L620.389 146.056L620.984 146.859ZM602.797 125.391V124.391H601.797V125.391H602.797ZM605.258 125.391H606.258V124.391H605.258V125.391ZM620.609 144.68L621.195 145.49L621.609 145.191V144.68H620.609ZM620.609 125.391V124.391H619.609V125.391H620.609ZM622.07 125.391V150H624.07V125.391H622.07ZM623.07 149H621.266V151H623.07V149ZM622.262 149.911L621.98 146.77L619.988 146.949L620.27 150.089L622.262 149.911ZM620.389 146.056C617.732 148.023 614.783 149 611.516 149V151C615.217 151 618.581 149.883 621.579 147.663L620.389 146.056ZM611.516 149C608.777 149 606.903 148.283 605.701 147.02C604.491 145.747 603.797 143.749 603.797 140.836H601.797C601.797 144.033 602.556 146.616 604.252 148.398C605.957 150.19 608.442 151 611.516 151V149ZM603.797 140.836V125.391H601.797V140.836H603.797ZM602.797 126.391H605.258V124.391H602.797V126.391ZM604.258 125.391V140.906H606.258V125.391H604.258ZM604.258 140.906C604.258 143.339 604.819 145.35 606.118 146.753C607.43 148.172 609.333 148.797 611.633 148.797V146.797C609.683 146.797 608.398 146.274 607.586 145.395C606.759 144.502 606.258 143.067 606.258 140.906H604.258ZM611.633 148.797C614.981 148.797 618.175 147.673 621.195 145.49L620.024 143.869C617.294 145.842 614.503 146.797 611.633 146.797V148.797ZM621.609 144.68V125.391H619.609V144.68H621.609ZM620.609 126.391H623.07V124.391H620.609V126.391ZM630.594 150H629.594V151H630.594V150ZM630.594 125.391V124.391H629.594V125.391H630.594ZM632.352 125.391L633.347 125.294L633.259 124.391H632.352V125.391ZM632.656 128.531L631.661 128.628L631.822 130.289L633.211 129.363L632.656 128.531ZM650.867 150V151H651.867V150H650.867ZM648.406 150H647.406V151H648.406V150ZM633.055 130.711L632.467 129.902L632.055 130.202V130.711H633.055ZM633.055 150V151H634.055V150H633.055ZM631.594 150V125.391H629.594V150H631.594ZM630.594 126.391H632.352V124.391H630.594V126.391ZM631.356 125.487L631.661 128.628L633.652 128.435L633.347 125.294L631.356 125.487ZM633.211 129.363C636.229 127.351 639.117 126.391 641.891 126.391V124.391C638.633 124.391 635.365 125.524 632.102 127.699L633.211 129.363ZM641.891 126.391C644.762 126.391 646.728 127.014 647.969 128.087C649.182 129.135 649.867 130.758 649.867 133.148H651.867C651.867 130.367 651.056 128.111 649.277 126.573C647.526 125.06 645.004 124.391 641.891 124.391V126.391ZM649.867 133.148V150H651.867V133.148H649.867ZM650.867 149H648.406V151H650.867V149ZM649.406 150V133.078H647.406V150H649.406ZM649.406 133.078C649.406 131.04 648.781 129.348 647.385 128.194C646.026 127.07 644.097 126.594 641.773 126.594V128.594C643.872 128.594 645.259 129.031 646.111 129.736C646.926 130.41 647.406 131.46 647.406 133.078H649.406ZM641.773 126.594C638.57 126.594 635.463 127.725 632.467 129.902L633.643 131.52C636.366 129.541 639.071 128.594 641.773 128.594V126.594ZM632.055 130.711V150H634.055V130.711H632.055ZM633.055 149H630.594V151H633.055V149ZM658.297 121.406V120.406H657.297V121.406H658.297ZM660.031 121.406L661.025 121.295L660.926 120.406H660.031V121.406ZM660.477 125.391L659.483 125.502L659.582 126.391H660.477V125.391ZM667.859 125.391H668.859V124.391H667.859V125.391ZM667.859 127.5V128.5H668.859V127.5H667.859ZM660.688 127.5V126.5H659.688V127.5H660.688ZM667.859 147.891H668.859V146.891H667.859V147.891ZM667.859 150V151H668.859V150H667.859ZM658.297 122.406H660.031V120.406H658.297V122.406ZM659.037 121.517L659.483 125.502L661.47 125.28L661.025 121.295L659.037 121.517ZM660.477 126.391H667.859V124.391H660.477V126.391ZM666.859 125.391V127.5H668.859V125.391H666.859ZM667.859 126.5H660.688V128.5H667.859V126.5ZM659.688 127.5V143.039H661.688V127.5H659.688ZM659.688 143.039C659.688 144.749 659.996 146.213 660.772 147.27C661.59 148.384 662.81 148.891 664.25 148.891V146.891C663.315 146.891 662.753 146.589 662.384 146.086C661.973 145.525 661.688 144.563 661.688 143.039H659.688ZM664.25 148.891H667.859V146.891H664.25V148.891ZM666.859 147.891V150H668.859V147.891H666.859ZM667.859 149H664.297V151H667.859V149ZM664.297 149C662.478 149 661.29 148.502 660.538 147.671C659.769 146.821 659.297 145.447 659.297 143.367H657.297C657.297 145.709 657.824 147.652 659.055 149.013C660.303 150.393 662.115 151 664.297 151V149ZM659.297 143.367V121.406H657.297V143.367H659.297ZM693.078 138.234V139.234H694.026L694.077 138.288L693.078 138.234ZM674.398 138.234V137.234H673.398V138.234H674.398ZM692.07 146.719H693.07V145.296L691.732 145.778L692.07 146.719ZM692.07 148.828L692.409 149.769L693.07 149.531V148.828H692.07ZM674.398 136.031L673.4 135.982L673.348 137.031H674.398V136.031ZM690.758 136.031V137.031H691.774L691.758 136.015L690.758 136.031ZM683.023 126.391C686.209 126.391 688.422 127.267 689.858 128.856C691.31 130.464 692.125 132.974 692.125 136.57H694.125C694.125 132.713 693.256 129.634 691.342 127.515C689.41 125.377 686.572 124.391 683.023 124.391V126.391ZM692.125 136.57C692.125 137.082 692.11 137.619 692.08 138.18L694.077 138.288C694.109 137.694 694.125 137.121 694.125 136.57H692.125ZM693.078 137.234H674.398V139.234H693.078V137.234ZM673.398 138.234C673.398 141.622 674.297 144.343 676.266 146.203C678.225 148.054 681.07 148.891 684.617 148.891V146.891C681.351 146.891 679.088 146.118 677.64 144.75C676.203 143.391 675.398 141.284 675.398 138.234H673.398ZM684.617 148.891C687.506 148.891 690.108 148.487 692.409 147.66L691.732 145.778C689.689 146.513 687.322 146.891 684.617 146.891V148.891ZM691.07 146.719V148.828H693.07V146.719H691.07ZM691.732 147.887C689.689 148.622 687.322 149 684.617 149V151C687.506 151 690.108 150.597 692.409 149.769L691.732 147.887ZM684.617 149C680.543 149 677.671 147.989 675.812 146.144C673.954 144.3 672.938 141.453 672.938 137.414H670.938C670.938 141.765 672.034 145.212 674.403 147.563C676.77 149.913 680.238 151 684.617 151V149ZM672.938 137.414C672.938 133.541 673.832 130.823 675.444 129.074C677.042 127.341 679.504 126.391 683.023 126.391V124.391C679.152 124.391 676.071 125.444 673.974 127.719C671.891 129.978 670.938 133.271 670.938 137.414H672.938ZM674.398 137.031H690.758V135.031H674.398V137.031ZM691.758 136.015C691.709 133.028 691.01 130.607 689.497 128.928C687.963 127.227 685.744 126.453 683.023 126.453V128.453C685.366 128.453 686.967 129.109 688.011 130.267C689.076 131.448 689.713 133.316 689.758 136.048L691.758 136.015ZM683.023 126.453C680.12 126.453 677.743 127.215 676.06 128.889C674.385 130.555 673.547 132.976 673.4 135.982L675.397 136.08C675.531 133.368 676.271 131.5 677.471 130.307C678.663 129.121 680.459 128.453 683.023 128.453V126.453ZM719.422 138.234V139.234H720.369L720.42 138.288L719.422 138.234ZM700.742 138.234V137.234H699.742V138.234H700.742ZM718.414 146.719H719.414V145.296L718.076 145.778L718.414 146.719ZM718.414 148.828L718.753 149.769L719.414 149.531V148.828H718.414ZM700.742 136.031L699.743 135.982L699.692 137.031H700.742V136.031ZM717.102 136.031V137.031H718.118L718.101 136.015L717.102 136.031ZM709.367 126.391C712.553 126.391 714.766 127.267 716.201 128.856C717.654 130.464 718.469 132.974 718.469 136.57H720.469C720.469 132.713 719.6 129.634 717.685 127.515C715.754 125.377 712.916 124.391 709.367 124.391V126.391ZM718.469 136.57C718.469 137.082 718.454 137.619 718.423 138.18L720.42 138.288C720.453 137.694 720.469 137.121 720.469 136.57H718.469ZM719.422 137.234H700.742V139.234H719.422V137.234ZM699.742 138.234C699.742 141.622 700.641 144.343 702.61 146.203C704.568 148.054 707.414 148.891 710.961 148.891V146.891C707.695 146.891 705.432 146.118 703.984 144.75C702.546 143.391 701.742 141.284 701.742 138.234H699.742ZM710.961 148.891C713.85 148.891 716.452 148.487 718.753 147.66L718.076 145.778C716.033 146.513 713.666 146.891 710.961 146.891V148.891ZM717.414 146.719V148.828H719.414V146.719H717.414ZM718.076 147.887C716.033 148.622 713.666 149 710.961 149V151C713.85 151 716.452 150.597 718.753 149.769L718.076 147.887ZM710.961 149C706.887 149 704.015 147.989 702.156 146.144C700.298 144.3 699.281 141.453 699.281 137.414H697.281C697.281 141.765 698.378 145.212 700.747 147.563C703.114 149.913 706.582 151 710.961 151V149ZM699.281 137.414C699.281 133.541 700.176 130.823 701.788 129.074C703.386 127.341 705.848 126.391 709.367 126.391V124.391C705.496 124.391 702.415 125.444 700.318 127.719C698.234 129.978 697.281 133.271 697.281 137.414H699.281ZM700.742 137.031H717.102V135.031H700.742V137.031ZM718.101 136.015C718.052 133.028 717.354 130.607 715.84 128.928C714.307 127.227 712.087 126.453 709.367 126.453V128.453C711.709 128.453 713.311 129.109 714.355 130.267C715.419 131.448 716.057 133.316 716.102 136.048L718.101 136.015ZM709.367 126.453C706.463 126.453 704.087 127.215 702.404 128.889C700.729 130.555 699.891 132.976 699.743 135.982L701.741 136.08C701.874 133.368 702.615 131.5 703.815 130.307C705.007 129.121 706.802 128.453 709.367 128.453V126.453ZM725.797 150H724.797V151H725.797V150ZM725.797 125.391V124.391H724.797V125.391H725.797ZM727.555 125.391L728.552 125.316L728.483 124.391H727.555V125.391ZM727.859 129.469L726.862 129.543L727.036 131.864L728.6 130.141L727.859 129.469ZM736.109 125.391H737.109V124.391H736.109V125.391ZM736.109 127.359V128.359H737.109V127.359H736.109ZM728.258 131.648L727.478 131.022L727.258 131.297V131.648H728.258ZM728.258 150V151H729.258V150H728.258ZM726.797 150V125.391H724.797V150H726.797ZM725.797 126.391H727.555V124.391H725.797V126.391ZM726.557 125.465L726.862 129.543L728.857 129.394L728.552 125.316L726.557 125.465ZM728.6 130.141C730.922 127.583 733.419 126.391 736.109 126.391V124.391C732.737 124.391 729.734 125.917 727.119 128.797L728.6 130.141ZM735.109 125.391V127.359H737.109V125.391H735.109ZM736.109 126.359C732.795 126.359 729.913 127.991 727.478 131.022L729.037 132.275C731.196 129.587 733.549 128.359 736.109 128.359V126.359ZM727.258 131.648V150H729.258V131.648H727.258ZM728.258 149H725.797V151H728.258V149Z" fill="#F2F2F2"/>
<path d="M205.854 87.16L202.458 102.931L199.701 115.725L197.504 125.929L194.749 138.724L185.746 180.523L74.1919 127.298L65.992 123.386L55.6126 118.433L47.4097 114.52L37.5438 109.812L43.1369 101.409L47.788 94.4227L53.672 85.5833L58.3218 78.601L110.646 0L166.075 50.7445L175.945 59.7805L183.816 66.9858L193.688 76.0218L205.854 87.16Z" fill="#F2F2F2"/>
<path d="M43.7036 133.559C36.2441 129.265 31.6003 123.403 29.9011 116.136C28.6394 110.74 29.002 104.668 30.9785 98.0887C32.4438 93.2378 34.6407 88.6559 37.4883 84.5117C52.5952 62.4327 53.9586 48.0459 52.4423 39.8648C50.7797 30.8944 45.3781 27.1689 45.3237 27.1324L45.5569 26.7621C45.6127 26.7995 51.1566 30.6116 52.8591 39.764C53.8406 45.0404 53.3789 51.0568 51.4867 57.6462C49.1317 65.847 44.5395 74.9715 37.8377 84.7666C35.0161 88.8729 32.8391 93.4129 31.3871 98.2193C28.1453 109.01 27.6867 123.834 43.9118 133.173L43.7036 133.559Z" fill="#2F2E41"/>
<path d="M47.2908 133.559C54.7503 129.265 59.394 123.403 61.0932 116.136C62.3549 110.74 61.9923 104.668 60.0158 98.0887C58.5505 93.2378 56.3536 88.6559 53.506 84.5117C38.3992 62.4327 37.0357 48.0459 38.552 39.8648C40.2146 30.8944 45.6162 27.1689 45.6706 27.1324L45.4374 26.7621C45.3817 26.7995 39.8377 30.6116 38.1352 39.764C37.1537 45.0404 37.6155 51.0568 39.5076 57.6462C41.8626 65.847 46.4548 74.9715 53.1566 84.7666C55.9783 88.8729 58.1552 93.4129 59.6073 98.2193C62.849 109.01 63.3077 123.834 47.0825 133.173L47.2908 133.559Z" fill="#2F2E41"/>
<path d="M209.875 115.01C202.415 110.716 197.771 104.854 196.072 97.5868C194.811 92.191 195.173 86.1191 197.15 79.5397C198.615 74.6889 200.812 70.107 203.659 65.9627C218.766 43.8837 220.13 29.497 218.613 21.3159C216.951 12.3455 211.549 8.62 211.495 8.58345L211.728 8.21319C211.784 8.2506 217.328 12.0627 219.03 21.2151C220.012 26.4915 219.55 32.5079 217.658 39.0973C215.303 47.2981 210.711 56.4226 204.009 66.2176C201.187 70.324 199.01 74.864 197.558 79.6704C194.316 90.4613 193.858 105.285 210.083 114.625L209.875 115.01Z" fill="#2F2E41"/>
<path d="M213.462 115.01C220.921 110.716 225.565 104.854 227.264 97.5868C228.526 92.191 228.163 86.1191 226.187 79.5398C224.722 74.6889 222.525 70.107 219.677 65.9628C204.57 43.8837 203.207 29.497 204.723 21.3159C206.386 12.3455 211.787 8.62 211.842 8.58345L211.609 8.21319C211.553 8.2506 206.009 12.0627 204.306 21.2151C203.325 26.4915 203.787 32.5079 205.679 39.0973C208.034 47.2981 212.626 56.4226 219.328 66.2177C222.149 70.324 224.326 74.864 225.778 79.6704C229.02 90.4613 229.479 105.285 213.254 114.625L213.462 115.01Z" fill="#2F2E41"/>
<path d="M100.048 66.2339C94.4434 56.4556 83.355 55.9999 83.355 55.9999C83.355 55.9999 72.55 54.5732 65.6187 69.4656C59.1581 83.3466 50.2417 96.7489 64.1832 99.9983L66.7014 91.9054L68.2609 100.601C70.246 100.748 72.2373 100.783 74.226 100.706C89.1562 100.208 103.375 100.852 102.917 95.3198C102.309 87.966 105.441 75.6425 100.048 66.2339Z" fill="#2F2E41"/>
<path d="M77.0433 86.6989C78.9746 91.1099 80.1924 96.3677 80.9195 102.208L96.4244 101.207C92.8598 95.9918 91.6762 90.0055 93.0327 83.1969L77.0433 86.6989Z" fill="#FFB8B8"/>
<path opacity="0.2" d="M77.0433 86.6989C78.9746 91.1099 80.1924 96.3677 80.9195 102.208L96.4244 101.207C92.8598 95.9918 91.6762 90.0055 93.0327 83.1969L77.0433 86.6989Z" fill="black"/>
<path d="M5.10536 170.682C5.10536 170.682 -2.91936 175.12 1.15276 178.909C5.22488 182.698 10.604 173.893 10.604 173.893L5.10536 170.682Z" fill="#FFB8B8"/>
<path d="M103.208 157.739L103.083 163.803L102.815 176.904V176.906L102.737 180.7H51.4207L53.5062 168.743L53.5084 168.734L55.3758 158.031L56.2093 153.238V153.236L98.3633 147.233L103.208 157.739Z" fill="#2F2E41"/>
<path d="M103.208 157.74L103.082 163.804C88.168 163.408 65.0513 159.691 55.3753 158.03L56.2087 153.237L98.3625 147.234L103.208 157.74Z" fill="#3F3D56"/>
<path d="M84.5535 90.9514C91.2434 90.9514 96.6666 85.3517 96.6666 78.4441C96.6666 71.5366 91.2434 65.9369 84.5535 65.9369C77.8636 65.9369 72.4403 71.5366 72.4403 78.4441C72.4403 85.3517 77.8636 90.9514 84.5535 90.9514Z" fill="#FFB8B8"/>
<path d="M107.811 164.494C107.811 164.494 109.264 178.002 100.543 177.001L99.0893 163.493L91.3369 155.489L69.5332 154.989L53.5438 170.497C53.5438 170.497 53.0593 154.488 54.9974 152.987C56.9355 151.486 61.2962 147.984 61.2962 147.984V145.483L48.214 117.967C48.214 117.967 55.9664 101.457 62.2653 100.957L70.5022 100.457C70.5022 100.457 73.4094 98.956 73.4094 98.4557C73.4094 97.9554 72.9249 93.9531 75.3475 94.9537C75.3475 94.9537 75.5655 89.8207 78.119 91.3866C78.119 91.3866 86.1573 97.8904 94.3167 91.6718C94.3167 91.6718 98.1203 90.9514 97.6357 92.9525C97.1512 94.9537 97.6357 96.4546 98.6048 96.4546C99.5738 96.4546 103.935 97.9555 103.935 98.956C103.935 99.1712 104.25 101.242 104.744 104.359V104.364C106.541 115.726 110.718 140.98 110.718 140.98C110.718 140.98 115.079 147.484 107.811 164.494Z" fill="#6C63FF"/>
<path d="M51.6057 115.466L48.214 117.967L17.2043 158.991L0.730453 172.499C0.730453 172.499 9.93645 170.998 7.99835 179.002L64.6879 145.483L51.6057 115.466Z" fill="#6C63FF"/>
<path d="M104.744 104.359V104.364C104.099 108.276 83.0999 107.461 80.1928 107.461C77.2856 107.461 74.863 106.961 71.9558 104.96C69.0486 102.958 70.5022 100.457 70.5022 100.457C70.5022 100.457 72.9776 98.5102 72.9776 98.0099C72.9776 97.5096 72.4931 93.5073 74.9157 94.5079C74.9157 94.5079 75.1337 89.3749 77.6872 90.9408C77.6872 90.9408 86.1573 97.8904 94.3167 91.6718C94.3167 91.6718 98.1202 90.9514 97.6357 92.9526C97.1512 94.9537 97.6357 96.4546 98.6048 96.4546C99.5738 96.4546 103.935 97.9555 103.935 98.956C103.935 99.1712 104.25 101.242 104.744 104.359Z" fill="#3F3D56"/>
<path d="M102.239 85.6984C102.239 85.6984 98.3625 77.1934 94.4863 81.1957C90.6101 85.1981 98.847 91.2016 98.847 91.2016L102.239 85.6984Z" fill="#FFB8B8"/>
<path d="M102.239 83.6972C102.239 83.6972 96.2532 91.5075 94.4007 92.105C94.4007 92.105 99.8161 114.215 106.599 120.218L110.476 140.73C110.476 140.73 126.95 133.726 123.073 122.22C123.035 122.104 122.996 121.99 122.958 121.876C119.721 112.294 115.254 103.203 109.677 94.8462L102.239 83.6972Z" fill="#6C63FF"/>
<path opacity="0.2" d="M99.0401 106.862L110.96 140.73L106.6 120.218L99.0401 106.862Z" fill="black"/>
<path d="M97.5702 65.2913L86.6153 59.3664L71.4874 61.7902L68.3573 76.0637L76.1487 75.7544L78.3254 70.5103V75.668L81.9204 75.5252L84.0071 67.1764L85.3112 76.0637L98.0918 75.7946L97.5702 65.2913Z" fill="#2F2E41"/>
<path d="M201.058 142.283L207.274 165.176C207.274 165.176 205.993 185.453 211.97 181.485C218.086 177.426 215.812 160.327 215.812 160.327L212.229 139.789L201.058 142.283Z" fill="#A0616A"/>
<path d="M204.379 78.0632L209.512 83.3629V108.614C209.512 108.614 212.531 113.29 211.927 114.537C211.324 115.784 210.72 115.784 211.324 116.72C211.927 117.655 212.531 118.278 211.927 118.902C211.324 119.525 211.324 121.084 211.927 121.708C212.531 122.331 213.739 123.266 212.833 124.202C211.927 125.137 210.72 124.513 211.927 127.942C213.135 131.372 215.249 132.307 214.645 133.554C214.041 134.801 214.041 137.918 214.041 137.918L201.058 139.789L198.341 104.562L204.379 78.0632Z" fill="#D0CDE1"/>
<path d="M214.645 137.607L199.549 138.23L200.152 144.777L213.437 142.283L214.645 137.607Z" fill="#3F3D56"/>
<path d="M173.13 45.4859L171.319 64.1905L189.736 66.9962L191.095 56.2412L192.454 45.4859H173.13Z" fill="#A0616A"/>
<path opacity="0.1" d="M173.13 45.3845L171.319 64.0893L189.736 66.8951L191.095 56.1398L192.454 45.3845H173.13Z" fill="black"/>
<path d="M133.126 134.489L143.391 157.247C143.391 157.247 145.203 167.846 147.92 168.158C150.637 168.469 153.354 157.247 153.354 157.247L149.731 151.323L145.504 134.489H133.126Z" fill="#A0616A"/>
<path d="M203.395 180.921H145.36C145.819 173.411 146.109 168.781 146.109 168.781L146.88 167.528L150.617 161.464L153.285 157.135L154.216 155.624L154.561 155.064L158.216 154.376L195.925 147.271C196.549 150.155 197.431 152.972 198.561 155.686C198.818 156.29 199.094 156.895 199.39 157.492C200.338 159.402 201.495 161.213 202.871 162.546C203.184 162.849 203.41 163.658 203.557 164.902C203.92 167.949 203.816 173.616 203.395 180.921Z" fill="#2F2E41"/>
<path d="M183.245 51.5649C191.249 51.5649 197.737 44.8654 197.737 36.6011C197.737 28.3368 191.249 21.6373 183.245 21.6373C175.241 21.6373 168.753 28.3368 168.753 36.6011C168.753 44.8654 175.241 51.5649 183.245 51.5649Z" fill="#A0616A"/>
<path d="M150.939 67.1521L148.826 65.9052C148.826 65.9052 139.466 72.4518 136.447 87.1039C133.428 101.756 131.314 105.497 131.314 105.497C131.314 105.497 128.295 106.12 130.408 108.303C132.522 110.485 132.522 110.173 130.71 111.42C128.899 112.667 127.691 110.173 128.899 112.667C130.106 115.161 131.616 114.537 130.408 116.096C129.201 117.655 127.087 117.655 128.295 118.902C129.503 120.149 127.087 122.955 128.597 124.202C130.106 125.449 130.71 125.76 130.71 127.943C130.701 129.216 130.905 130.482 131.314 131.683H147.014C147.014 131.683 143.995 125.76 144.901 124.513C145.806 123.266 146.108 122.019 145.504 121.396C144.901 120.772 143.089 122.019 144.901 120.461C146.712 118.902 147.316 119.837 146.712 117.967C146.108 116.096 144.901 117.031 146.108 116.096C147.316 115.161 148.222 115.473 147.618 114.537C147.014 113.602 145.806 113.602 147.014 112.979C148.222 112.355 149.128 112.979 148.826 111.42C148.524 109.861 148.222 110.485 148.826 109.861C149.429 109.238 155.77 88.0391 155.77 87.4156C155.77 86.7921 150.939 67.1521 150.939 67.1521Z" fill="#D0CDE1"/>
<path d="M147.92 130.437L128.899 131.684L133.729 136.36L147.014 136.671L147.92 130.437Z" fill="#3F3D56"/>
<path d="M153.354 153.817L149.429 161.299C149.429 161.299 161.204 162.858 165.431 164.417C169.658 165.975 180.527 168.158 180.527 168.158L183.245 157.247L153.354 153.817Z" fill="#3F3D56"/>
<path d="M187.774 157.247L191.095 167.534L204.379 164.728L202.87 155.064L187.774 157.247Z" fill="#3F3D56"/>
<path d="M193.208 56.5528C193.208 56.5528 192.303 55.9293 190.189 57.1763C188.076 58.4233 181.131 59.0468 177.81 55.3058C174.489 51.5649 172.074 48.4474 171.168 49.0709C170.262 49.6944 169.658 56.8645 169.658 56.8645L166.639 59.3585L148.826 65.9052L150.335 107.991L153.053 117.655C153.053 117.655 150.939 125.137 153.656 129.501C156.374 133.866 152.147 135.424 152.147 135.424C152.147 135.424 151.241 136.671 151.845 139.789C152.449 142.906 151.241 154.441 151.241 154.441C151.241 154.441 176.904 166.287 203.776 156L200.756 144.153L199.247 117.655C199.247 117.655 200.756 113.29 200.454 111.42C200.153 109.55 209.512 83.3629 209.512 83.3629C209.512 83.3629 208.002 70.2696 200.153 67.4639C192.303 64.6582 191.095 61.8525 191.095 61.8525C191.095 61.8525 194.718 57.7998 193.208 56.5528Z" fill="#D0CDE1"/>
<path d="M168.652 38.518C168.652 38.518 167.147 36.1871 167.726 33.6769C168.072 32.2518 168.208 30.7811 168.131 29.314C168.131 29.314 169.347 25.25 170.562 22.9789C171.778 20.7078 171.199 19.7515 175.019 19.0343C178.839 18.3171 177.277 13.1773 187.348 18.7355C187.688 19.2254 188.161 19.6003 188.707 19.8131C189.253 20.0258 189.847 20.0668 190.416 19.9308C192.5 19.5125 193.252 22.5007 193.252 22.5007C193.252 22.5007 194.641 21.664 195.162 22.8593C195.683 24.0547 199.398 22.1419 199.398 30.2103C199.398 38.2787 195.171 45.4858 195.171 45.4858C195.171 45.4858 195.481 31.9139 188.593 30.5392C181.705 29.1646 174.296 25.1603 172.501 30.3002C170.707 35.44 168.652 38.518 168.652 38.518Z" fill="#2F2E41"/>
<path d="M195.322 41.7449C196.072 41.7449 196.68 40.9074 196.68 39.8744C196.68 38.8414 196.072 38.0039 195.322 38.0039C194.571 38.0039 193.963 38.8414 193.963 39.8744C193.963 40.9074 194.571 41.7449 195.322 41.7449Z" fill="#A0616A"/>
</svg>
